# xmcd
#
# Track frame offsets:
#	150
#	17427
#	32922
#	57621
#	74448
#	98019
#	113248
#	135093
#	151839
#	172262
#	188647
#	211850
#	223442
#
# Disc length: 3232 seconds
#
# Revision: 0
# Processed by: cddbd v1.5.2PL0 Copyright (c) Steve Scherf et al.
# Submitted via: EasyCDDAExtractor 9.0.0.1
#
DISCID=b70c9e0d
DTITLE=Robo Opatovsky - Swing and Latin
DYEAR=2006
DGENRE=Swing
TTITLE0=Ocean
TTITLE1=Raindrops
TTITLE2=Kissing A Fool
TTITLE3=Dvaja
TTITLE4=Duhovy pelikan
TTITLE5=Night And Day
TTITLE6=Milovanie v dazdi
TTITLE7=Na dvoch strunach
TTITLE8=Natalia
TTITLE9=Polnocny dazd
TTITLE10=Moje smutne cakanie
TTITLE11=Route 66
TTITLE12=Sen
EXTD=
EXTT0=
EXTT1=
EXTT2=
EXTT3=
EXTT4=
EXTT5=
EXTT6=
EXTT7=
EXTT8=
EXTT9=
EXTT10=
EXTT11=
EXTT12=
PLAYORDER=
